<svg xmlns="http://www.w3.org/2000/svg" width="64" height="64" viewBox="0 0 64 64" fill="none">
  <defs>
    <linearGradient id="bg" x1="12" y1="8" x2="52" y2="56" gradientUnits="userSpaceOnUse">
      <stop stop-color="#0F6CBD"/>
      <stop offset="1" stop-color="#18A999"/>
    </linearGradient>
    <linearGradient id="accent" x1="32" y1="21" x2="32" y2="42" gradientUnits="userSpaceOnUse">
      <stop stop-color="#FFE39A"/>
      <stop offset="1" stop-color="#FFD166"/>
    </linearGradient>
  </defs>

  <rect width="64" height="64" rx="18" fill="#EAF3FF"/>
  <rect x="8" y="8" width="48" height="48" rx="16" fill="url(#bg)"/>

  <path d="M19 22.5C19 20.567 20.567 19 22.5 19H31V42H22.5C20.567 42 19 40.433 19 38.5V22.5Z" fill="#E8F1FF"/>
  <path d="M45 22.5C45 20.567 43.433 19 41.5 19H33V42H41.5C43.433 42 45 40.433 45 38.5V22.5Z" fill="#EAFBF7"/>
  <path d="M32 19V42" stroke="#BFD5F1" stroke-width="2.4" stroke-linecap="round"/>

  <path d="M27.5 35.5C27.5 33.015 29.515 31 32 31C34.485 31 36.5 33.015 36.5 35.5V39H27.5V35.5Z" fill="url(#accent)"/>
  <path d="M32 17L37.5 23H34V33H30V23H26.5L32 17Z" fill="url(#accent)"/>

  <path d="M51 12L52.787 16.213L57 18L52.787 19.787L51 24L49.213 19.787L45 18L49.213 16.213L51 12Z" fill="#FFD166"/>
</svg>
